<svg width="460" height="86" viewBox="0 0 460 86" fill="none" xmlns="http://www.w3.org/2000/svg">
<path d="M54.9902 8.76244C57.2474 6.51554 58.5776 6.06769 61.5119 4.84677C64.4462 3.62585 67.596 3 70.7765 3C73.9571 3 77.1068 3.62585 80.0411 4.83651C82.9857 6.05743 85.6533 7.84265 87.9002 10.0896C90.1471 12.3365 91.9323 15.0143 93.1532 17.9383C94.3741 20.8726 95 24.0224 95 27.203C95 30.3835 94.3741 33.5333 93.1532 36.4676C91.9323 39.4122 90.1471 42.0797 87.9002 44.3266L48.9949 83.2422L10.0896 44.3369C5.5547 39.7918 3 33.6359 3 27.2132C3 20.7906 5.5547 14.6347 10.0896 10.0896C14.6347 5.5547 20.7906 3 27.2132 3C33.6359 3 39.7918 5.5547 44.3164 10.0998L63.8819 27.8391V53.4887H53.6987L53.6372 38.1502H43.7062V53.4887H33.5025V27.8391L43.5777 18.9694" stroke="url(#paint0_linear)" stroke-width="5.34948" stroke-linecap="round" stroke-linejoin="round"/>
<path d="M132.239 45.952C131.247 45.952 130.479 45.424 129.935 44.368L119.759 22.912C119.503 22.368 119.471 21.84 119.663 21.328C119.887 20.784 120.303 20.368 120.911 20.08C121.455 19.792 121.999 19.744 122.543 19.936C123.119 20.128 123.551 20.496 123.839 21.04L132.191 39.04L140.447 21.04C140.735 20.496 141.167 20.128 141.743 19.936C142.351 19.744 142.959 19.792 143.567 20.08C144.143 20.336 144.527 20.736 144.719 21.28C144.911 21.824 144.879 22.368 144.623 22.912L134.447 44.368C133.967 45.424 133.231 45.952 132.239 45.952ZM154.36 57.52C154.04 57.52 153.656 57.424 153.208 57.232C151.8 56.592 151.416 55.584 152.056 54.208L156.856 43.408L146.056 22.912C145.736 22.304 145.688 21.728 145.912 21.184C146.168 20.608 146.6 20.192 147.208 19.936C147.816 19.68 148.392 19.664 148.936 19.888C149.48 20.08 149.896 20.48 150.184 21.088L158.968 38.56L166.696 21.136C167.336 19.792 168.344 19.408 169.72 19.984C171.16 20.592 171.56 21.6 170.92 23.008L156.232 56.032C155.848 57.024 155.224 57.52 154.36 57.52ZM185.537 46.192C183.137 46.192 181.009 45.632 179.153 44.512C177.329 43.36 175.889 41.792 174.833 39.808C173.777 37.792 173.249 35.488 173.249 32.896C173.249 30.272 173.809 27.968 174.929 25.984C176.081 23.968 177.649 22.4 179.633 21.28C181.617 20.128 183.905 19.552 186.497 19.552C189.057 19.552 191.329 20.128 193.313 21.28C195.297 22.4 196.849 23.968 197.969 25.984C199.121 27.968 199.697 30.272 199.697 32.896V43.264C199.697 45.792 199.137 48.08 198.017 50.128C196.897 52.208 195.329 53.856 193.313 55.072C191.329 56.288 189.025 56.896 186.401 56.896C184.129 56.896 182.001 56.448 180.017 55.552C178.033 54.656 176.353 53.344 174.977 51.616C174.561 51.072 174.401 50.512 174.497 49.936C174.625 49.36 174.945 48.896 175.457 48.544C176.033 48.16 176.625 48.032 177.233 48.16C177.873 48.288 178.385 48.608 178.769 49.12C179.633 50.208 180.721 51.056 182.033 51.664C183.345 52.272 184.833 52.576 186.497 52.576C188.033 52.576 189.441 52.208 190.721 51.472C192.033 50.736 193.073 49.648 193.841 48.208C194.609 46.768 194.993 45.008 194.993 42.928V40.576C194.001 42.304 192.689 43.68 191.057 44.704C189.425 45.696 187.585 46.192 185.537 46.192ZM186.497 41.872C188.161 41.872 189.633 41.488 190.913 40.72C192.193 39.952 193.185 38.896 193.889 37.552C194.625 36.208 194.993 34.656 194.993 32.896C194.993 31.136 194.625 29.584 193.889 28.24C193.185 26.864 192.193 25.792 190.913 25.024C189.633 24.256 188.161 23.872 186.497 23.872C184.833 23.872 183.361 24.256 182.081 25.024C180.801 25.792 179.793 26.864 179.057 28.24C178.321 29.584 177.953 31.136 177.953 32.896C177.953 34.656 178.321 36.208 179.057 37.552C179.793 38.896 180.801 39.952 182.081 40.72C183.361 41.488 184.833 41.872 186.497 41.872ZM209.384 46C207.784 46 206.984 45.2 206.984 43.6V22.144C206.984 20.544 207.784 19.744 209.384 19.744C210.984 19.744 211.784 20.544 211.784 22.144V23.056C212.744 21.936 213.912 21.056 215.288 20.416C216.696 19.776 218.216 19.456 219.848 19.456C221.768 19.456 223.192 19.776 224.12 20.416C225.08 21.024 225.448 21.76 225.224 22.624C225.064 23.296 224.744 23.744 224.264 23.968C223.784 24.16 223.224 24.192 222.584 24.064C220.536 23.648 218.696 23.616 217.064 23.968C215.432 24.32 214.136 24.976 213.176 25.936C212.248 26.896 211.784 28.112 211.784 29.584V43.6C211.784 45.2 210.984 46 209.384 46ZM241.368 46.24C239.16 46.24 237.176 45.776 235.416 44.848C233.688 43.888 232.312 42.496 231.288 40.672C230.296 38.848 229.8 36.608 229.8 33.952V22.144C229.8 21.44 230.024 20.864 230.472 20.416C230.952 19.936 231.544 19.696 232.248 19.696C232.952 19.696 233.528 19.936 233.976 20.416C234.456 20.864 234.696 21.44 234.696 22.144V33.952C234.696 36.672 235.416 38.672 236.856 39.952C238.328 41.2 240.152 41.824 242.328 41.824C243.704 41.824 244.92 41.552 245.976 41.008C247.064 40.464 247.928 39.728 248.568 38.8C249.208 37.872 249.528 36.832 249.528 35.68V22.144C249.528 21.408 249.752 20.816 250.2 20.368C250.68 19.92 251.272 19.696 251.976 19.696C252.712 19.696 253.304 19.92 253.752 20.368C254.2 20.816 254.424 21.408 254.424 22.144V43.552C254.424 44.256 254.2 44.848 253.752 45.328C253.304 45.776 252.712 46 251.976 46C251.272 46 250.68 45.776 250.2 45.328C249.752 44.848 249.528 44.256 249.528 43.552V43.024C248.536 44.016 247.336 44.8 245.928 45.376C244.52 45.952 243 46.24 241.368 46.24ZM265.495 46.048C264.791 46.048 264.199 45.824 263.719 45.376C263.271 44.896 263.047 44.304 263.047 43.6V22.192C263.047 21.456 263.271 20.864 263.719 20.416C264.199 19.968 264.791 19.744 265.495 19.744C266.231 19.744 266.823 19.968 267.271 20.416C267.719 20.864 267.943 21.456 267.943 22.192V22.72C268.935 21.728 270.135 20.944 271.543 20.368C272.951 19.792 274.471 19.504 276.103 19.504C278.311 19.504 280.279 19.984 282.007 20.944C283.767 21.872 285.143 23.248 286.135 25.072C287.159 26.896 287.671 29.136 287.671 31.792V43.6C287.671 44.304 287.431 44.896 286.951 45.376C286.503 45.824 285.927 46.048 285.223 46.048C284.519 46.048 283.927 45.824 283.447 45.376C282.999 44.896 282.775 44.304 282.775 43.6V31.792C282.775 29.072 282.039 27.088 280.567 25.84C279.127 24.56 277.319 23.92 275.143 23.92C273.799 23.92 272.583 24.192 271.495 24.736C270.407 25.28 269.543 26.016 268.903 26.944C268.263 27.84 267.943 28.88 267.943 30.064V43.6C267.943 44.304 267.719 44.896 267.271 45.376C266.823 45.824 266.231 46.048 265.495 46.048ZM305.317 46C303.717 46 302.277 45.6 300.997 44.8C299.717 43.968 298.709 42.848 297.973 41.44C297.237 40.032 296.869 38.448 296.869 36.688V24.832H294.661C293.989 24.832 293.445 24.64 293.029 24.256C292.613 23.872 292.405 23.392 292.405 22.816C292.405 22.176 292.613 21.664 293.029 21.28C293.445 20.896 293.989 20.704 294.661 20.704H296.869V13.792C296.869 13.088 297.093 12.512 297.541 12.064C297.989 11.616 298.565 11.392 299.269 11.392C299.973 11.392 300.549 11.616 300.997 12.064C301.445 12.512 301.669 13.088 301.669 13.792V20.704H305.749C306.421 20.704 306.965 20.896 307.381 21.28C307.797 21.664 308.005 22.176 308.005 22.816C308.005 23.392 307.797 23.872 307.381 24.256C306.965 24.64 306.421 24.832 305.749 24.832H301.669V36.688C301.669 37.968 302.021 39.04 302.725 39.904C303.429 40.768 304.293 41.2 305.317 41.2H306.949C307.525 41.2 308.005 41.424 308.389 41.872C308.805 42.32 309.013 42.896 309.013 43.6C309.013 44.304 308.741 44.88 308.197 45.328C307.685 45.776 307.013 46 306.181 46H305.317ZM326.071 46.24C323.863 46.24 321.879 45.776 320.119 44.848C318.391 43.888 317.015 42.496 315.991 40.672C314.999 38.848 314.503 36.608 314.503 33.952V22.144C314.503 21.44 314.727 20.864 315.175 20.416C315.655 19.936 316.247 19.696 316.951 19.696C317.655 19.696 318.231 19.936 318.679 20.416C319.159 20.864 319.399 21.44 319.399 22.144V33.952C319.399 36.672 320.119 38.672 321.559 39.952C323.031 41.2 324.855 41.824 327.031 41.824C328.407 41.824 329.623 41.552 330.679 41.008C331.767 40.464 332.631 39.728 333.271 38.8C333.911 37.872 334.231 36.832 334.231 35.68V22.144C334.231 21.408 334.455 20.816 334.903 20.368C335.383 19.92 335.975 19.696 336.679 19.696C337.415 19.696 338.007 19.92 338.455 20.368C338.903 20.816 339.127 21.408 339.127 22.144V43.552C339.127 44.256 338.903 44.848 338.455 45.328C338.007 45.776 337.415 46 336.679 46C335.975 46 335.383 45.776 334.903 45.328C334.455 44.848 334.231 44.256 334.231 43.552V43.024C333.239 44.016 332.039 44.8 330.631 45.376C329.223 45.952 327.703 46.24 326.071 46.24ZM341.03 57.232C340.326 57.232 339.75 56.992 339.302 56.512C338.854 56.064 338.63 55.488 338.63 54.784C338.63 54.048 338.854 53.456 339.302 53.008C339.75 52.56 340.326 52.336 341.03 52.336C342.918 52.336 344.47 51.728 345.686 50.512C346.902 49.296 347.51 47.76 347.51 45.904V22.192C347.51 21.456 347.734 20.864 348.182 20.416C348.662 19.968 349.254 19.744 349.958 19.744C350.694 19.744 351.286 19.968 351.734 20.416C352.182 20.864 352.406 21.456 352.406 22.192V45.904C352.406 48.112 351.91 50.064 350.918 51.76C349.958 53.456 348.63 54.784 346.934 55.744C345.238 56.736 343.27 57.232 341.03 57.232ZM349.958 15.472C349.094 15.472 348.342 15.168 347.702 14.56C347.094 13.92 346.79 13.168 346.79 12.304C346.79 11.44 347.094 10.704 347.702 10.096C348.342 9.456 349.094 9.136 349.958 9.136C350.822 9.136 351.558 9.456 352.166 10.096C352.806 10.704 353.126 11.44 353.126 12.304C353.126 13.168 352.806 13.92 352.166 14.56C351.558 15.168 350.822 15.472 349.958 15.472ZM371.945 46.192C369.289 46.192 366.921 45.632 364.841 44.512C362.793 43.36 361.177 41.792 359.993 39.808C358.841 37.792 358.265 35.488 358.265 32.896C358.265 30.272 358.809 27.968 359.897 25.984C361.017 23.968 362.553 22.4 364.505 21.28C366.457 20.128 368.697 19.552 371.225 19.552C373.721 19.552 375.865 20.112 377.657 21.232C379.449 22.32 380.809 23.84 381.737 25.792C382.697 27.712 383.177 29.936 383.177 32.464C383.177 33.072 382.969 33.584 382.553 34C382.137 34.384 381.609 34.576 380.969 34.576H362.729C363.081 36.784 364.089 38.592 365.753 40C367.449 41.376 369.513 42.064 371.945 42.064C372.937 42.064 373.945 41.888 374.969 41.536C376.025 41.152 376.873 40.72 377.513 40.24C377.993 39.888 378.505 39.712 379.049 39.712C379.625 39.68 380.121 39.84 380.537 40.192C381.081 40.672 381.369 41.2 381.401 41.776C381.433 42.352 381.177 42.848 380.633 43.264C379.545 44.128 378.185 44.832 376.553 45.376C374.953 45.92 373.417 46.192 371.945 46.192ZM371.225 23.68C368.857 23.68 366.953 24.336 365.513 25.648C364.073 26.96 363.161 28.656 362.777 30.736H378.761C378.473 28.688 377.689 27.008 376.409 25.696C375.129 24.352 373.401 23.68 371.225 23.68ZM391.87 46.048C391.166 46.048 390.574 45.824 390.094 45.376C389.646 44.896 389.422 44.304 389.422 43.6V22.24C389.422 21.504 389.646 20.912 390.094 20.464C390.574 20.016 391.166 19.792 391.87 19.792C392.606 19.792 393.198 20.016 393.646 20.464C394.094 20.912 394.318 21.472 394.318 22.144C395.15 21.312 396.142 20.672 397.294 20.224C398.446 19.744 399.694 19.504 401.038 19.504C404.398 19.504 406.926 20.768 408.622 23.296C409.55 22.112 410.734 21.184 412.174 20.512C413.614 19.84 415.23 19.504 417.022 19.504C419.774 19.504 422.014 20.4 423.742 22.192C425.47 23.984 426.334 26.544 426.334 29.872V43.6C426.334 44.304 426.11 44.896 425.662 45.376C425.214 45.824 424.622 46.048 423.886 46.048C423.182 46.048 422.59 45.824 422.11 45.376C421.662 44.896 421.438 44.304 421.438 43.6V29.872C421.438 27.856 420.942 26.368 419.95 25.408C418.958 24.416 417.662 23.92 416.062 23.92C414.398 23.92 413.022 24.496 411.934 25.648C410.878 26.8 410.35 28.272 410.35 30.064V43.6C410.35 44.304 410.126 44.896 409.678 45.376C409.23 45.824 408.638 46.048 407.902 46.048C407.198 46.048 406.606 45.824 406.126 45.376C405.678 44.896 405.454 44.304 405.454 43.6V29.872C405.454 27.856 404.958 26.368 403.966 25.408C402.974 24.416 401.678 23.92 400.078 23.92C398.414 23.92 397.038 24.496 395.95 25.648C394.862 26.8 394.318 28.272 394.318 30.064V43.6C394.318 44.304 394.094 44.896 393.646 45.376C393.198 45.824 392.606 46.048 391.87 46.048ZM446.804 46.192C444.148 46.192 441.78 45.632 439.7 44.512C437.652 43.36 436.036 41.792 434.852 39.808C433.7 37.792 433.124 35.488 433.124 32.896C433.124 30.272 433.668 27.968 434.756 25.984C435.876 23.968 437.412 22.4 439.364 21.28C441.316 20.128 443.556 19.552 446.084 19.552C448.58 19.552 450.724 20.112 452.516 21.232C454.308 22.32 455.668 23.84 456.596 25.792C457.556 27.712 458.036 29.936 458.036 32.464C458.036 33.072 457.828 33.584 457.412 34C456.996 34.384 456.468 34.576 455.828 34.576H437.588C437.94 36.784 438.948 38.592 440.612 40C442.308 41.376 444.372 42.064 446.804 42.064C447.796 42.064 448.804 41.888 449.828 41.536C450.884 41.152 451.732 40.72 452.372 40.24C452.852 39.888 453.364 39.712 453.908 39.712C454.484 39.68 454.98 39.84 455.396 40.192C455.94 40.672 456.228 41.2 456.26 41.776C456.292 42.352 456.036 42.848 455.492 43.264C454.404 44.128 453.044 44.832 451.412 45.376C449.812 45.92 448.276 46.192 446.804 46.192ZM446.084 23.68C443.716 23.68 441.812 24.336 440.372 25.648C438.932 26.96 438.02 28.656 437.636 30.736H453.62C453.332 28.688 452.548 27.008 451.268 25.696C449.988 24.352 448.26 23.68 446.084 23.68Z" fill="black"/>
<path d="M384.003 78C383.651 78 383.355 77.88 383.115 77.64C382.875 77.4 382.755 77.104 382.755 76.752V60.504C382.755 60.136 382.875 59.84 383.115 59.616C383.355 59.376 383.651 59.256 384.003 59.256H394.851C395.219 59.256 395.515 59.368 395.739 59.592C395.963 59.8 396.075 60.08 396.075 60.432C396.075 60.768 395.963 61.04 395.739 61.248C395.515 61.456 395.219 61.56 394.851 61.56H385.251V67.392H392.139C392.507 67.392 392.803 67.504 393.027 67.728C393.251 67.936 393.363 68.208 393.363 68.544C393.363 68.88 393.251 69.16 393.027 69.384C392.803 69.592 392.507 69.696 392.139 69.696H385.251V75.696H394.851C395.219 75.696 395.515 75.8 395.739 76.008C395.963 76.216 396.075 76.488 396.075 76.824C396.075 77.176 395.963 77.464 395.739 77.688C395.515 77.896 395.219 78 394.851 78H384.003ZM404.096 78.096C402.976 78.096 401.936 77.928 400.976 77.592C400.032 77.24 399.296 76.8 398.768 76.272C398.528 76.016 398.424 75.728 398.456 75.408C398.504 75.072 398.664 74.8 398.936 74.592C399.256 74.336 399.568 74.232 399.872 74.28C400.192 74.312 400.464 74.448 400.688 74.688C400.96 74.992 401.392 75.28 401.984 75.552C402.592 75.808 403.264 75.936 404 75.936C404.928 75.936 405.632 75.784 406.112 75.48C406.608 75.176 406.864 74.784 406.88 74.304C406.896 73.824 406.664 73.408 406.184 73.056C405.72 72.704 404.864 72.416 403.616 72.192C402 71.872 400.824 71.392 400.088 70.752C399.368 70.112 399.008 69.328 399.008 68.4C399.008 67.584 399.248 66.912 399.728 66.384C400.208 65.84 400.824 65.44 401.576 65.184C402.328 64.912 403.112 64.776 403.928 64.776C404.984 64.776 405.92 64.944 406.736 65.28C407.552 65.616 408.2 66.08 408.68 66.672C408.904 66.928 409.008 67.2 408.992 67.488C408.976 67.76 408.84 67.992 408.584 68.184C408.328 68.36 408.024 68.416 407.672 68.352C407.32 68.288 407.024 68.144 406.784 67.92C406.384 67.536 405.952 67.272 405.488 67.128C405.024 66.984 404.488 66.912 403.88 66.912C403.176 66.912 402.576 67.032 402.08 67.272C401.6 67.512 401.36 67.864 401.36 68.328C401.36 68.616 401.432 68.88 401.576 69.12C401.736 69.344 402.04 69.552 402.488 69.744C402.936 69.92 403.592 70.096 404.456 70.272C406.264 70.624 407.512 71.128 408.2 71.784C408.904 72.424 409.256 73.216 409.256 74.16C409.256 74.896 409.056 75.56 408.656 76.152C408.272 76.744 407.696 77.216 406.928 77.568C406.176 77.92 405.232 78.096 404.096 78.096ZM413.575 78.024C413.223 78.024 412.927 77.912 412.687 77.688C412.463 77.448 412.351 77.152 412.351 76.8V66.096C412.351 65.728 412.463 65.432 412.687 65.208C412.927 64.984 413.223 64.872 413.575 64.872C413.943 64.872 414.239 64.984 414.463 65.208C414.687 65.432 414.799 65.728 414.799 66.096V66.36C415.295 65.864 415.895 65.472 416.599 65.184C417.303 64.896 418.063 64.752 418.879 64.752C419.983 64.752 420.967 64.992 421.831 65.472C422.711 65.936 423.399 66.624 423.895 67.536C424.407 68.448 424.663 69.568 424.663 70.896V76.8C424.663 77.152 424.543 77.448 424.303 77.688C424.079 77.912 423.791 78.024 423.439 78.024C423.087 78.024 422.791 77.912 422.551 77.688C422.327 77.448 422.215 77.152 422.215 76.8V70.896C422.215 69.536 421.847 68.544 421.111 67.92C420.391 67.28 419.487 66.96 418.399 66.96C417.727 66.96 417.119 67.096 416.575 67.368C416.031 67.64 415.599 68.008 415.279 68.472C414.959 68.92 414.799 69.44 414.799 70.032V76.8C414.799 77.152 414.687 77.448 414.463 77.688C414.239 77.912 413.943 78.024 413.575 78.024ZM413.575 73.224C413.223 73.224 412.927 73.112 412.687 72.888C412.463 72.648 412.351 72.352 412.351 72V60.48C412.351 60.112 412.463 59.816 412.687 59.592C412.927 59.368 413.223 59.256 413.575 59.256C413.943 59.256 414.239 59.368 414.463 59.592C414.687 59.816 414.799 60.112 414.799 60.48V72C414.799 72.352 414.687 72.648 414.463 72.888C414.239 73.112 413.943 73.224 413.575 73.224ZM434.686 78.096C433.39 78.096 432.246 77.816 431.254 77.256C430.262 76.68 429.478 75.896 428.902 74.904C428.342 73.896 428.062 72.744 428.062 71.448C428.062 70.136 428.342 68.984 428.902 67.992C429.478 66.984 430.262 66.2 431.254 65.64C432.246 65.064 433.39 64.776 434.686 64.776C435.966 64.776 437.102 65.064 438.094 65.64C439.086 66.2 439.862 66.984 440.422 67.992C440.998 68.984 441.286 70.136 441.286 71.448C441.286 72.744 441.006 73.896 440.446 74.904C439.886 75.896 439.11 76.68 438.118 77.256C437.126 77.816 435.982 78.096 434.686 78.096ZM434.686 75.936C435.518 75.936 436.254 75.744 436.894 75.36C437.534 74.976 438.03 74.448 438.382 73.776C438.75 73.104 438.934 72.328 438.934 71.448C438.934 70.568 438.75 69.792 438.382 69.12C438.03 68.432 437.534 67.896 436.894 67.512C436.254 67.128 435.518 66.936 434.686 66.936C433.854 66.936 433.118 67.128 432.478 67.512C431.838 67.896 431.334 68.432 430.966 69.12C430.598 69.792 430.414 70.568 430.414 71.448C430.414 72.328 430.598 73.104 430.966 73.776C431.334 74.448 431.838 74.976 432.478 75.36C433.118 75.744 433.854 75.936 434.686 75.936ZM446.154 83.616C445.802 83.616 445.506 83.496 445.266 83.256C445.042 83.032 444.93 82.744 444.93 82.392V71.448C444.946 70.184 445.242 69.048 445.818 68.04C446.394 67.032 447.178 66.24 448.17 65.664C449.162 65.072 450.282 64.776 451.53 64.776C452.794 64.776 453.922 65.072 454.914 65.664C455.906 66.24 456.69 67.032 457.266 68.04C457.858 69.048 458.154 70.184 458.154 71.448C458.154 72.712 457.882 73.848 457.338 74.856C456.81 75.848 456.082 76.64 455.154 77.232C454.226 77.808 453.178 78.096 452.01 78.096C451.066 78.096 450.194 77.904 449.394 77.52C448.61 77.12 447.938 76.584 447.378 75.912V82.392C447.378 82.744 447.266 83.032 447.042 83.256C446.818 83.496 446.522 83.616 446.154 83.616ZM451.53 75.936C452.346 75.936 453.074 75.744 453.714 75.36C454.354 74.96 454.858 74.424 455.226 73.752C455.61 73.064 455.802 72.296 455.802 71.448C455.802 70.584 455.61 69.816 455.226 69.144C454.858 68.456 454.354 67.92 453.714 67.536C453.074 67.136 452.346 66.936 451.53 66.936C450.73 66.936 450.002 67.136 449.346 67.536C448.706 67.92 448.202 68.456 447.834 69.144C447.466 69.816 447.282 70.584 447.282 71.448C447.282 72.296 447.466 73.064 447.834 73.752C448.202 74.424 448.706 74.96 449.346 75.36C450.002 75.744 450.73 75.936 451.53 75.936Z" fill="#FF6B01"/>
<defs>
<linearGradient id="paint0_linear" x1="8.05268" y1="0.0228245" x2="79.966" y2="90.9241" gradientUnits="userSpaceOnUse">
<stop stop-color="#FF7A00"/>
<stop offset="1" stop-color="#FF5C00"/>
</linearGradient>
</defs>
</svg>
