<svg width="460" height="86" viewBox="0 0 460 86" fill="none" xmlns="http://www.w3.org/2000/svg">
<path d="M54.8333 8.74505C57.0836 6.50492 58.4098 6.05843 61.3352 4.8412C64.2607 3.62396 67.401 3 70.5719 3C73.7429 3 76.8831 3.62396 79.8086 4.83097C82.7443 6.0482 85.4038 7.82803 87.6439 10.0681C89.884 12.3083 91.6639 14.978 92.8811 17.8932C94.0983 20.8187 94.7223 23.959 94.7223 27.1299C94.7223 30.3009 94.0983 33.4411 92.8811 36.3666C91.6639 39.3023 89.884 41.9618 87.6439 44.2019L48.856 83L10.0681 44.2121C5.54699 39.6807 3 33.5434 3 27.1401C3 20.7369 5.54699 14.5995 10.0681 10.0681C14.5995 5.54699 20.7369 3 27.1401 3C33.5434 3 39.6807 5.54699 44.1917 10.0784L63.6981 27.7641V53.3363H53.5457L53.4843 38.0441H43.5833V53.3363H33.4104V27.7641L43.4552 18.9212" stroke="url(#paint0_linear)" stroke-width="6" stroke-linecap="round" stroke-linejoin="round"/>
<path d="M131.961 58.952C130.969 58.952 130.201 58.424 129.657 57.368L119.481 35.912C119.225 35.368 119.193 34.84 119.385 34.328C119.609 33.784 120.025 33.368 120.633 33.08C121.177 32.792 121.721 32.744 122.265 32.936C122.841 33.128 123.273 33.496 123.561 34.04L131.913 52.04L140.169 34.04C140.457 33.496 140.889 33.128 141.465 32.936C142.073 32.744 142.681 32.792 143.289 33.08C143.865 33.336 144.249 33.736 144.441 34.28C144.633 34.824 144.601 35.368 144.345 35.912L134.169 57.368C133.689 58.424 132.953 58.952 131.961 58.952ZM154.082 70.52C153.762 70.52 153.378 70.424 152.93 70.232C151.522 69.592 151.138 68.584 151.778 67.208L156.578 56.408L145.778 35.912C145.458 35.304 145.41 34.728 145.634 34.184C145.89 33.608 146.322 33.192 146.93 32.936C147.538 32.68 148.114 32.664 148.658 32.888C149.202 33.08 149.618 33.48 149.906 34.088L158.69 51.56L166.418 34.136C167.058 32.792 168.066 32.408 169.442 32.984C170.882 33.592 171.282 34.6 170.642 36.008L155.954 69.032C155.57 70.024 154.946 70.52 154.082 70.52ZM185.26 59.192C182.86 59.192 180.732 58.632 178.876 57.512C177.052 56.36 175.612 54.792 174.556 52.808C173.5 50.792 172.972 48.488 172.972 45.896C172.972 43.272 173.532 40.968 174.652 38.984C175.804 36.968 177.372 35.4 179.356 34.28C181.34 33.128 183.628 32.552 186.22 32.552C188.78 32.552 191.052 33.128 193.036 34.28C195.02 35.4 196.572 36.968 197.692 38.984C198.844 40.968 199.42 43.272 199.42 45.896V56.264C199.42 58.792 198.86 61.08 197.74 63.128C196.62 65.208 195.052 66.856 193.036 68.072C191.052 69.288 188.748 69.896 186.124 69.896C183.852 69.896 181.724 69.448 179.74 68.552C177.756 67.656 176.076 66.344 174.7 64.616C174.284 64.072 174.124 63.512 174.22 62.936C174.348 62.36 174.668 61.896 175.18 61.544C175.756 61.16 176.348 61.032 176.956 61.16C177.596 61.288 178.108 61.608 178.492 62.12C179.356 63.208 180.444 64.056 181.756 64.664C183.068 65.272 184.556 65.576 186.22 65.576C187.756 65.576 189.164 65.208 190.444 64.472C191.756 63.736 192.796 62.648 193.564 61.208C194.332 59.768 194.716 58.008 194.716 55.928V53.576C193.724 55.304 192.412 56.68 190.78 57.704C189.148 58.696 187.308 59.192 185.26 59.192ZM186.22 54.872C187.884 54.872 189.356 54.488 190.636 53.72C191.916 52.952 192.908 51.896 193.612 50.552C194.348 49.208 194.716 47.656 194.716 45.896C194.716 44.136 194.348 42.584 193.612 41.24C192.908 39.864 191.916 38.792 190.636 38.024C189.356 37.256 187.884 36.872 186.22 36.872C184.556 36.872 183.084 37.256 181.804 38.024C180.524 38.792 179.516 39.864 178.78 41.24C178.044 42.584 177.676 44.136 177.676 45.896C177.676 47.656 178.044 49.208 178.78 50.552C179.516 51.896 180.524 52.952 181.804 53.72C183.084 54.488 184.556 54.872 186.22 54.872ZM209.106 59C207.506 59 206.706 58.2 206.706 56.6V35.144C206.706 33.544 207.506 32.744 209.106 32.744C210.706 32.744 211.506 33.544 211.506 35.144V36.056C212.466 34.936 213.634 34.056 215.01 33.416C216.418 32.776 217.938 32.456 219.57 32.456C221.49 32.456 222.914 32.776 223.842 33.416C224.802 34.024 225.17 34.76 224.946 35.624C224.786 36.296 224.466 36.744 223.986 36.968C223.506 37.16 222.946 37.192 222.306 37.064C220.258 36.648 218.418 36.616 216.786 36.968C215.154 37.32 213.858 37.976 212.898 38.936C211.97 39.896 211.506 41.112 211.506 42.584V56.6C211.506 58.2 210.706 59 209.106 59ZM241.09 59.24C238.882 59.24 236.898 58.776 235.138 57.848C233.41 56.888 232.034 55.496 231.01 53.672C230.018 51.848 229.522 49.608 229.522 46.952V35.144C229.522 34.44 229.746 33.864 230.194 33.416C230.674 32.936 231.266 32.696 231.97 32.696C232.674 32.696 233.25 32.936 233.698 33.416C234.178 33.864 234.418 34.44 234.418 35.144V46.952C234.418 49.672 235.138 51.672 236.578 52.952C238.05 54.2 239.874 54.824 242.05 54.824C243.426 54.824 244.642 54.552 245.698 54.008C246.786 53.464 247.65 52.728 248.29 51.8C248.93 50.872 249.25 49.832 249.25 48.68V35.144C249.25 34.408 249.474 33.816 249.922 33.368C250.402 32.92 250.994 32.696 251.698 32.696C252.434 32.696 253.026 32.92 253.474 33.368C253.922 33.816 254.146 34.408 254.146 35.144V56.552C254.146 57.256 253.922 57.848 253.474 58.328C253.026 58.776 252.434 59 251.698 59C250.994 59 250.402 58.776 249.922 58.328C249.474 57.848 249.25 57.256 249.25 56.552V56.024C248.258 57.016 247.058 57.8 245.65 58.376C244.242 58.952 242.722 59.24 241.09 59.24ZM265.217 59.048C264.513 59.048 263.921 58.824 263.441 58.376C262.993 57.896 262.769 57.304 262.769 56.6V35.192C262.769 34.456 262.993 33.864 263.441 33.416C263.921 32.968 264.513 32.744 265.217 32.744C265.953 32.744 266.545 32.968 266.993 33.416C267.441 33.864 267.665 34.456 267.665 35.192V35.72C268.657 34.728 269.857 33.944 271.265 33.368C272.673 32.792 274.193 32.504 275.825 32.504C278.033 32.504 280.001 32.984 281.729 33.944C283.489 34.872 284.865 36.248 285.857 38.072C286.881 39.896 287.393 42.136 287.393 44.792V56.6C287.393 57.304 287.153 57.896 286.673 58.376C286.225 58.824 285.649 59.048 284.945 59.048C284.241 59.048 283.649 58.824 283.169 58.376C282.721 57.896 282.497 57.304 282.497 56.6V44.792C282.497 42.072 281.761 40.088 280.289 38.84C278.849 37.56 277.041 36.92 274.865 36.92C273.521 36.92 272.305 37.192 271.217 37.736C270.129 38.28 269.265 39.016 268.625 39.944C267.985 40.84 267.665 41.88 267.665 43.064V56.6C267.665 57.304 267.441 57.896 266.993 58.376C266.545 58.824 265.953 59.048 265.217 59.048ZM305.039 59C303.439 59 301.999 58.6 300.719 57.8C299.439 56.968 298.431 55.848 297.695 54.44C296.959 53.032 296.591 51.448 296.591 49.688V37.832H294.383C293.711 37.832 293.167 37.64 292.751 37.256C292.335 36.872 292.127 36.392 292.127 35.816C292.127 35.176 292.335 34.664 292.751 34.28C293.167 33.896 293.711 33.704 294.383 33.704H296.591V26.792C296.591 26.088 296.815 25.512 297.263 25.064C297.711 24.616 298.287 24.392 298.991 24.392C299.695 24.392 300.271 24.616 300.719 25.064C301.167 25.512 301.391 26.088 301.391 26.792V33.704H305.471C306.143 33.704 306.687 33.896 307.103 34.28C307.519 34.664 307.727 35.176 307.727 35.816C307.727 36.392 307.519 36.872 307.103 37.256C306.687 37.64 306.143 37.832 305.471 37.832H301.391V49.688C301.391 50.968 301.743 52.04 302.447 52.904C303.151 53.768 304.015 54.2 305.039 54.2H306.671C307.247 54.2 307.727 54.424 308.111 54.872C308.527 55.32 308.735 55.896 308.735 56.6C308.735 57.304 308.463 57.88 307.919 58.328C307.407 58.776 306.735 59 305.903 59H305.039ZM325.793 59.24C323.585 59.24 321.601 58.776 319.841 57.848C318.113 56.888 316.737 55.496 315.713 53.672C314.721 51.848 314.225 49.608 314.225 46.952V35.144C314.225 34.44 314.449 33.864 314.897 33.416C315.377 32.936 315.969 32.696 316.673 32.696C317.377 32.696 317.953 32.936 318.401 33.416C318.881 33.864 319.121 34.44 319.121 35.144V46.952C319.121 49.672 319.841 51.672 321.281 52.952C322.753 54.2 324.577 54.824 326.753 54.824C328.129 54.824 329.345 54.552 330.401 54.008C331.489 53.464 332.353 52.728 332.993 51.8C333.633 50.872 333.953 49.832 333.953 48.68V35.144C333.953 34.408 334.177 33.816 334.625 33.368C335.105 32.92 335.697 32.696 336.401 32.696C337.137 32.696 337.729 32.92 338.177 33.368C338.625 33.816 338.849 34.408 338.849 35.144V56.552C338.849 57.256 338.625 57.848 338.177 58.328C337.729 58.776 337.137 59 336.401 59C335.697 59 335.105 58.776 334.625 58.328C334.177 57.848 333.953 57.256 333.953 56.552V56.024C332.961 57.016 331.761 57.8 330.353 58.376C328.945 58.952 327.425 59.24 325.793 59.24ZM340.752 70.232C340.048 70.232 339.472 69.992 339.024 69.512C338.576 69.064 338.352 68.488 338.352 67.784C338.352 67.048 338.576 66.456 339.024 66.008C339.472 65.56 340.048 65.336 340.752 65.336C342.64 65.336 344.192 64.728 345.408 63.512C346.624 62.296 347.232 60.76 347.232 58.904V35.192C347.232 34.456 347.456 33.864 347.904 33.416C348.384 32.968 348.976 32.744 349.68 32.744C350.416 32.744 351.008 32.968 351.456 33.416C351.904 33.864 352.128 34.456 352.128 35.192V58.904C352.128 61.112 351.632 63.064 350.64 64.76C349.68 66.456 348.352 67.784 346.656 68.744C344.96 69.736 342.992 70.232 340.752 70.232ZM349.68 28.472C348.816 28.472 348.064 28.168 347.424 27.56C346.816 26.92 346.512 26.168 346.512 25.304C346.512 24.44 346.816 23.704 347.424 23.096C348.064 22.456 348.816 22.136 349.68 22.136C350.544 22.136 351.28 22.456 351.888 23.096C352.528 23.704 352.848 24.44 352.848 25.304C352.848 26.168 352.528 26.92 351.888 27.56C351.28 28.168 350.544 28.472 349.68 28.472ZM371.667 59.192C369.011 59.192 366.643 58.632 364.563 57.512C362.515 56.36 360.899 54.792 359.715 52.808C358.563 50.792 357.987 48.488 357.987 45.896C357.987 43.272 358.531 40.968 359.619 38.984C360.739 36.968 362.275 35.4 364.227 34.28C366.179 33.128 368.419 32.552 370.947 32.552C373.443 32.552 375.587 33.112 377.379 34.232C379.171 35.32 380.531 36.84 381.459 38.792C382.419 40.712 382.899 42.936 382.899 45.464C382.899 46.072 382.691 46.584 382.275 47C381.859 47.384 381.331 47.576 380.691 47.576H362.451C362.803 49.784 363.811 51.592 365.475 53C367.171 54.376 369.235 55.064 371.667 55.064C372.659 55.064 373.667 54.888 374.691 54.536C375.747 54.152 376.595 53.72 377.235 53.24C377.715 52.888 378.227 52.712 378.771 52.712C379.347 52.68 379.843 52.84 380.259 53.192C380.803 53.672 381.091 54.2 381.123 54.776C381.155 55.352 380.899 55.848 380.355 56.264C379.267 57.128 377.907 57.832 376.275 58.376C374.675 58.92 373.139 59.192 371.667 59.192ZM370.947 36.68C368.579 36.68 366.675 37.336 365.235 38.648C363.795 39.96 362.883 41.656 362.499 43.736H378.483C378.195 41.688 377.411 40.008 376.131 38.696C374.851 37.352 373.123 36.68 370.947 36.68ZM391.592 59.048C390.888 59.048 390.296 58.824 389.816 58.376C389.368 57.896 389.144 57.304 389.144 56.6V35.24C389.144 34.504 389.368 33.912 389.816 33.464C390.296 33.016 390.888 32.792 391.592 32.792C392.328 32.792 392.92 33.016 393.368 33.464C393.816 33.912 394.04 34.472 394.04 35.144C394.872 34.312 395.864 33.672 397.016 33.224C398.168 32.744 399.416 32.504 400.76 32.504C404.12 32.504 406.648 33.768 408.344 36.296C409.272 35.112 410.456 34.184 411.896 33.512C413.336 32.84 414.952 32.504 416.744 32.504C419.496 32.504 421.736 33.4 423.464 35.192C425.192 36.984 426.056 39.544 426.056 42.872V56.6C426.056 57.304 425.832 57.896 425.384 58.376C424.936 58.824 424.344 59.048 423.608 59.048C422.904 59.048 422.312 58.824 421.832 58.376C421.384 57.896 421.16 57.304 421.16 56.6V42.872C421.16 40.856 420.664 39.368 419.672 38.408C418.68 37.416 417.384 36.92 415.784 36.92C414.12 36.92 412.744 37.496 411.656 38.648C410.6 39.8 410.072 41.272 410.072 43.064V56.6C410.072 57.304 409.848 57.896 409.4 58.376C408.952 58.824 408.36 59.048 407.624 59.048C406.92 59.048 406.328 58.824 405.848 58.376C405.4 57.896 405.176 57.304 405.176 56.6V42.872C405.176 40.856 404.68 39.368 403.688 38.408C402.696 37.416 401.4 36.92 399.8 36.92C398.136 36.92 396.76 37.496 395.672 38.648C394.584 39.8 394.04 41.272 394.04 43.064V56.6C394.04 57.304 393.816 57.896 393.368 58.376C392.92 58.824 392.328 59.048 391.592 59.048ZM446.527 59.192C443.871 59.192 441.503 58.632 439.423 57.512C437.375 56.36 435.759 54.792 434.575 52.808C433.423 50.792 432.847 48.488 432.847 45.896C432.847 43.272 433.391 40.968 434.479 38.984C435.599 36.968 437.135 35.4 439.087 34.28C441.039 33.128 443.279 32.552 445.807 32.552C448.303 32.552 450.447 33.112 452.239 34.232C454.031 35.32 455.391 36.84 456.319 38.792C457.279 40.712 457.759 42.936 457.759 45.464C457.759 46.072 457.551 46.584 457.135 47C456.719 47.384 456.191 47.576 455.551 47.576H437.311C437.663 49.784 438.671 51.592 440.335 53C442.031 54.376 444.095 55.064 446.527 55.064C447.519 55.064 448.527 54.888 449.551 54.536C450.607 54.152 451.455 53.72 452.095 53.24C452.575 52.888 453.087 52.712 453.631 52.712C454.207 52.68 454.703 52.84 455.119 53.192C455.663 53.672 455.951 54.2 455.983 54.776C456.015 55.352 455.759 55.848 455.215 56.264C454.127 57.128 452.767 57.832 451.135 58.376C449.535 58.92 447.999 59.192 446.527 59.192ZM445.807 36.68C443.439 36.68 441.535 37.336 440.095 38.648C438.655 39.96 437.743 41.656 437.359 43.736H453.343C453.055 41.688 452.271 40.008 450.991 38.696C449.711 37.352 447.983 36.68 445.807 36.68Z" fill="black"/>
<defs>
<linearGradient id="paint0_linear" x1="8.03743" y1="0.0318116" x2="79.7336" y2="90.6587" gradientUnits="userSpaceOnUse">
<stop stop-color="#FF7A00"/>
<stop offset="1" stop-color="#FF5C00"/>
</linearGradient>
</defs>
</svg>
